# xmcd
#
# Track frame offsets:
#	150
#	23200
#	45191
#	79952
#	100022
#	121133
#	142764
#	165671
#	185535
#	204713
#
# Disc length: 2984 seconds
#
# Revision: 0
# Processed by: cddbd v1.5.2PL0 Copyright (c) Steve Scherf et al.
# Submitted via: EasyCDDAExtractor 12.0.1.1
#
DISCID=770ba60a
DTITLE=Various Artist - Tlanya and Joe: 10 Years Of Love
DYEAR=2009
DGENRE=R&B
TTITLE0=Quincy Jones - Setembro
TTITLE1=Musiq Soulchild - So Beautiful
TTITLE2=Tony, Toni, Tone' - Anniversary
TTITLE3=Ginuwine - You Make My Life Complete
TTITLE4=Tyrese - What Am I Gonna Do
TTITLE5=Kindred and The Family Soul - Where Would I Be
TTITLE6=Michael Jackson - Lady In My Life
TTITLE7=Donell Jones - Special Girl
TTITLE8=Eric Benet' - You're The Only One
TTITLE9=KEM - I Can't Stop Loving You
EXTD=
EXTT0=
EXTT1=
EXTT2=
EXTT3=
EXTT4=
EXTT5=
EXTT6=
EXTT7=
EXTT8=
EXTT9=
PLAYORDER=
